<?xml version="1.0" encoding="iso-8859-1"?>
<!-- Generator: Adobe Illustrator 19.0.0, SVG Export Plug-In . SVG Version: 6.00 Build 0)  -->
<svg version="1.1" id="Layer_1" xmlns="http://www.w3.org/2000/svg" xmlns:xlink="http://www.w3.org/1999/xlink" x="0px" y="0px"
	 viewBox="0 0 512 512" style="enable-background:new 0 0 512 512;" xml:space="preserve">
<g>
	<path style="fill:#F7CD95;" d="M492.627,462.878l-6.509,22.783c-2.513,8.779-12.033,15.963-21.166,15.963H66.422
		c-9.133,0-18.653-7.185-21.166-15.963l-6.509-22.783H492.627z"/>
	<path style="fill:#F7CD95;" d="M384.692,190.273l8.303-11.07h35.978v87.178c0,90.178-73.108,163.287-163.286,163.287
		c-67.75,0-125.869-41.27-150.578-100.031H94.75c-52.252,0-94.75-42.51-94.75-94.75c0-20.801,6.731-40.041,18.133-55.683h358.256
		L384.692,190.273z M94.75,296.426h10.417c-1.816-9.742-2.768-19.783-2.768-30.045v-53.968H37.451
		c-2.79,7.085-4.24,14.679-4.24,22.473C33.211,268.817,60.82,296.426,94.75,296.426z"/>
</g>
<g>
	<path style="fill:#FFFFFF;" d="M265.686,393.689c-4.586,0-8.303-3.717-8.303-8.303s3.716-8.303,8.303-8.303
		c61.043,0,110.703-49.661,110.703-110.703v-9.691c0-4.585,3.716-8.303,8.303-8.303s8.303,3.717,8.303,8.303v9.691
		C392.995,336.579,335.884,393.689,265.686,393.689z"/>
	<path style="fill:#FFFFFF;" d="M376.389,179.198v44.281c0,4.585,3.716,8.303,8.303,8.303s8.303-3.717,8.303-8.303v-44.281H376.389z
		"/>
</g>
<g>
	<path style="fill:#F9EBDB;" d="M226.941,154.29c-4.585,0-8.303-3.717-8.303-8.303c0-12.644,3.441-19.239,6.477-25.058
		c2.566-4.917,4.593-8.803,4.593-17.375c0-8.574-2.027-12.46-4.593-17.379c-3.035-5.819-6.477-12.414-6.477-25.06
		s3.441-19.24,6.477-25.06c2.566-4.919,4.593-8.804,4.593-17.378c0-4.585,3.717-8.303,8.303-8.303c4.585,0,8.303,3.717,8.303,8.303
		c0,12.644-3.441,19.24-6.477,25.06c-2.566,4.919-4.593,8.804-4.593,17.378s2.027,12.46,4.593,17.378
		c3.035,5.819,6.477,12.414,6.477,25.06c0,12.643-3.441,19.238-6.477,25.056c-2.566,4.919-4.593,8.803-4.593,17.376
		C235.243,150.573,231.526,154.29,226.941,154.29z"/>
	<path style="fill:#F9EBDB;" d="M293.362,154.29c-4.585,0-8.303-3.717-8.303-8.303c0-12.644,3.441-19.239,6.477-25.058
		c2.566-4.917,4.593-8.803,4.593-17.375c0-8.574-2.027-12.46-4.593-17.379c-3.035-5.819-6.477-12.414-6.477-25.06
		s3.441-19.24,6.477-25.06c2.566-4.919,4.593-8.804,4.593-17.378c0-4.585,3.717-8.303,8.303-8.303s8.303,3.717,8.303,8.303
		c0,12.644-3.441,19.24-6.477,25.06c-2.566,4.919-4.593,8.804-4.593,17.378s2.027,12.46,4.593,17.378
		c3.035,5.819,6.477,12.414,6.477,25.06c0,12.643-3.441,19.238-6.477,25.056c-2.566,4.919-4.593,8.803-4.593,17.376
		C301.665,150.573,297.947,154.29,293.362,154.29z"/>
</g>
<path style="fill:#FC9851;" d="M503.697,471.181H27.676c-4.585,0-8.303-3.717-8.303-8.303c0-4.585,3.717-8.303,8.303-8.303h476.022
	c4.585,0,8.303,3.717,8.303,8.303C512,467.464,508.283,471.181,503.697,471.181z"/>
<g>
</g>
<g>
</g>
<g>
</g>
<g>
</g>
<g>
</g>
<g>
</g>
<g>
</g>
<g>
</g>
<g>
</g>
<g>
</g>
<g>
</g>
<g>
</g>
<g>
</g>
<g>
</g>
<g>
</g>
</svg>
