<svg id="Layer_5" enable-background="new 0 0 64 64" height="512" viewBox="0 0 64 64" width="512" xmlns="http://www.w3.org/2000/svg"><g fill="#f0bc5e"><ellipse cx="32" cy="24" rx="20.382" ry="6"/><path d="m19.389 47.343-1.466-3.73c-.918.247-1.899.387-2.923.387-4.962 0-9-3.14-9-7 0-3.013 2.464-5.579 5.903-6.564-.285-1.21-.516-2.52-.672-3.962-5.341 1.367-9.231 5.56-9.231 10.526 0 6.075 5.82 11 13 11 1.543 0 3.016-.239 4.389-.657z"/><path d="m51 40c-1.657-1.657-4.791-1.209-7 1s-2.657 5.343-1 7 4.791 1.209 7-1 2.657-5.343 1-7z"/></g><path d="m48.354 50.06 15.06-15.06-3-3h-1.796l.599-1.197-3.217-3.217-2.893 2.893c.594-2.605.893-5.406.893-8.479 0-4-5.161-7.088-13.262-8.362 1.711-1.975 3.262-3.937 3.262-7.638 0-2.757-2.243-5-5-5s-5 2.243-5 5 2.243 5 5 5v-2c-1.654 0-3-1.346-3-3s1.346-3 3-3 3 1.346 3 3c0 3.143-1.338 4.682-3.033 6.63-.197.227-.399.461-.603.701-1.989-.212-4.113-.331-6.364-.331s-4.375.119-6.364.331c-.203-.239-.406-.474-.603-.701-1.695-1.948-3.033-3.487-3.033-6.63 0-1.654 1.346-3 3-3s3 1.346 3 3-1.346 3-3 3v2c2.757 0 5-2.243 5-5s-2.243-5-5-5-5 2.243-5 5c0 3.701 1.551 5.663 3.262 7.638-8.101 1.274-13.262 4.362-13.262 8.362 0 9.688 2.849 14.649 5.362 19.026 1.599 2.784 3.002 5.273 3.464 8.624-11.822 1.273-11.826 3.578-11.826 4.35v4c0 1.166.894 2.653 7.865 3.815 4.586.764 10.671 1.185 17.135 1.185s12.549-.421 17.135-1.185c6.971-1.162 7.865-2.649 7.865-3.815v-4c0-.741-.004-2.628-8.646-3.94zm6.578 3.944c-.782.8-5.148 2.058-13.179 2.657l4.828-4.828c5.772.748 7.88 1.732 8.351 2.171zm-19.518-3.004 1.586-1.586 4.586 4.586-1.586 1.586zm17.586-17.586 4.586 4.586-14.586 14.586-4.586-4.586zm6.586.586 1 1-1.586 1.586-2.586-2.586zm-2.803-2.803-1.057 2.115-1.312-1.312 1.586-1.586zm-24.783 1.803c-11.477 0-18.179-2.939-19.654-5.718-.049-.358-.093-.724-.132-1.099 3.434 2.959 10.623 4.817 19.786 4.817s16.352-1.858 19.786-4.817c-.039.371-.083.737-.132 1.099-1.474 2.779-8.177 5.718-19.654 5.718zm-7.211-17.552c1.729 2.195 3.211 4.974 3.211 10.552v1h2v-1c0-5.356-1.347-8.512-2.914-10.797 1.54-.128 3.173-.203 4.914-.203s3.374.075 4.914.203c-1.567 2.285-2.914 5.441-2.914 10.797h2c0-5.578 1.482-8.357 3.211-10.552 8.116 1.056 12.789 3.837 12.789 6.552 0 3.441-7.481 7-20 7s-20-3.559-20-7c0-2.715 4.673-5.496 12.789-6.552zm-11.751 15.384c3.725 2.599 10.593 4.168 18.962 4.168 8.374 0 15.244-1.571 18.968-4.173-.23.892-.5 1.757-.809 2.599l-17.573 17.574 1.953 1.953c-.828.03-1.674.047-2.539.047-6.411 0-10.148-.792-11.002-1.286-.068-5.007-1.932-8.252-3.902-11.684-1.467-2.555-3.052-5.324-4.058-9.198zm5.946 20.814c.002.121.016.231.016.354 0 2.61 8.145 3 13 3 1.541 0 3.024-.054 4.44-.146l2.001 2.001c-1.975.09-4.109.145-6.441.145-14.318 0-21.882-1.917-22.933-2.997.52-.496 2.994-1.604 9.917-2.357zm13.016 9.354c-14.679 0-22.259-2.015-23-3.076v-1.662c1.172.543 2.999 1.076 5.865 1.553 4.586.764 10.671 1.185 17.135 1.185s12.549-.421 17.135-1.185c2.866-.478 4.693-1.011 5.865-1.553v1.662c-.741 1.061-8.321 3.076-23 3.076z"/><path d="m24.628 47.819c-.673-3.651-2.163-6.46-3.76-9.252l-1.736.993c1.566 2.737 2.912 5.275 3.529 8.621z"/><path d="m18.674 34.562-1.798.877c.346.709.708 1.387 1.075 2.047l1.748-.972c-.35-.63-.695-1.276-1.025-1.952z"/></svg>